<svg width="16" height="16" viewBox="0 0 16 16" fill="none" xmlns="http://www.w3.org/2000/svg">
<rect x="2" y="6.94287" width="2" height="2" rx="1" transform="rotate(89.9801 2 6.94287)" fill="#D9D9D9"/>
<rect x="4.06641" y="2" width="2" height="2" rx="1" transform="rotate(89.9801 4.06641 2)" fill="#D9D9D9"/>
<rect x="16" y="6.96631" width="2" height="2" rx="1" transform="rotate(89.9801 16 6.96631)" fill="#D9D9D9"/>
<rect x="13.9824" y="11.911" width="2" height="2" rx="1" transform="rotate(89.9801 13.9824 11.911)" fill="#D9D9D9"/>
<rect x="8.95215" y="13.9993" width="2" height="2" rx="1" transform="rotate(89.9801 8.95215 13.9993)" fill="#D9D9D9"/>
<rect x="4.00049" y="11.9077" width="2" height="2" rx="1" transform="rotate(89.9801 4.00049 11.9077)" fill="#D9D9D9"/>
<rect x="9" width="2" height="2" rx="1" transform="rotate(89.9801 9 0)" fill="#D9D9D9"/>
<rect x="13.9004" y="1.99927" width="2" height="2" rx="1" transform="rotate(89.9801 13.9004 1.99927)" fill="#D9D9D9"/>
</svg>
