<svg width="12" height="16" viewBox="0 0 12 16" fill="none" xmlns="http://www.w3.org/2000/svg">
<path fill-rule="evenodd" clip-rule="evenodd" d="M7.0409 0.836994C7.37393 0.941971 7.60039 1.25081 7.60039 1.59998V5.59998L10.8004 5.59998C11.0987 5.59998 11.3722 5.76595 11.51 6.03054C11.6477 6.29512 11.6268 6.61438 11.4558 6.85875L5.85578 14.8588C5.65554 15.1448 5.2929 15.268 4.95988 15.163C4.62686 15.058 4.40039 14.7492 4.40039 14.4V10.4H1.20039C0.902093 10.4 0.628568 10.234 0.49081 9.96943C0.353052 9.70485 0.373943 9.38559 0.545007 9.14122L6.14501 1.14121C6.34525 0.855159 6.70788 0.732018 7.0409 0.836994Z" fill="#F59E0B"/>
</svg>
