<svg width="12" height="14" viewBox="0 0 12 14" fill="none" xmlns="http://www.w3.org/2000/svg">
<path fill-rule="evenodd" clip-rule="evenodd" d="M5.1999 0.599976C4.89689 0.599976 4.61988 0.771177 4.48436 1.0422L3.90548 2.19998H1.1999C0.758075 2.19998 0.399902 2.55815 0.399902 2.99997C0.399902 3.4418 0.758075 3.79997 1.1999 3.79997L1.1999 11.8C1.1999 12.6836 1.91625 13.4 2.7999 13.4H9.1999C10.0836 13.4 10.7999 12.6836 10.7999 11.8V3.79997C11.2417 3.79997 11.5999 3.4418 11.5999 2.99997C11.5999 2.55815 11.2417 2.19998 10.7999 2.19998H8.09433L7.51545 1.0422C7.37993 0.771177 7.10292 0.599976 6.7999 0.599976H5.1999ZM3.5999 5.39997C3.5999 4.95815 3.95807 4.59997 4.3999 4.59997C4.84173 4.59997 5.1999 4.95815 5.1999 5.39997V10.2C5.1999 10.6418 4.84173 11 4.3999 11C3.95807 11 3.5999 10.6418 3.5999 10.2V5.39997ZM7.5999 4.59997C7.15807 4.59997 6.7999 4.95815 6.7999 5.39997V10.2C6.7999 10.6418 7.15807 11 7.5999 11C8.04173 11 8.3999 10.6418 8.3999 10.2V5.39997C8.3999 4.95815 8.04173 4.59997 7.5999 4.59997Z" fill="white" fill-opacity="0.95"/>
</svg>
